# xmcd
#
# Track frame offsets: 
#        150
#        26772
#        46313
#        72960
#        92569
#        121991
#        144137
#        169344
#        188451
#        211055
#        229134
#        252954
#
# Disc length: 3646 seconds
#
# Revision: 1
# Processed by: cddbd v1.5.2PL0 Copyright (c) Steve Scherf et al.
# Submitted via: ExactAudioCopy v1.0b3
#
DISCID=9b0e3c0c
DTITLE=Nhu Quynh - Tren Dinh Mua Dong
DYEAR=2012
DGENRE=Pop
TTITLE0=Ve Lai Doi Sim
TTITLE1=Mua Buon
TTITLE2=Tren Dinh Mua Dong (feat Quoc Khanh)
TTITLE3=Rung La Thay Chua
TTITLE4=Me Toi
TTITLE5=Tiec Thuong (feat Lam Nhat Tien)
TTITLE6=Chuyen Hoa Sim
TTITLE7=Nguoi Tinh Mua Dong
TTITLE8=Tham Mo Me
TTITLE9=Nhung Kiep Hoa Xuan
TTITLE10=Chuyen Tinh Hoa Trang
TTITLE11=Khoc Me Dan Oan
EXTD=
EXTT0=
EXTT1=
EXTT2=
EXTT3=
EXTT4=
EXTT5=
EXTT6=
EXTT7=
EXTT8=
EXTT9=
EXTT10=
EXTT11=
PLAYORDER=
